<svg xmlns="http://www.w3.org/2000/svg" viewBox="0 0 390 620" width="390" height="620"><rect width="390" height="620" fill="#faf8f3"/><g transform="translate(-40,320) rotate(10) scale(2.1)" opacity="0.09"><path d="M172.5,112.9c-2.1,21.1-17.1,38.9-36.9,46.6c-19.8,7.7-42.5,4.9-59.8-7.4c-17.3-12.3-27.6-33-26.4-54.2c1.2-21.2,13.9-41.1,33.3-50.1c19.4-9,43.5-6.4,60.7,6.4C160.6,67,174.6,91.8,172.5,112.9z" fill="#1b3865"/></g><g transform="translate(180,-60) rotate(-15) scale(1.6)" opacity="0.11"><path d="M184.4,100c0,24-11,45-28.9,58.4c-17.9,13.4-42.1,17.8-62.9,9.6C71.8,160,56.4,141,50.6,118.6C44.8,96.2,49.3,71.8,63,54.4C76.7,37,98.8,26.3,120.6,29.5c21.8,3.2,42.1,19.5,52.5,41C182.4,86.3,184.4,100,184.4,100z" fill="#e2231a"/></g><path d="M-20,250 Q195,150 420,260" stroke="#1b3865" stroke-width="1.5" fill="none" opacity="0.14"/><circle cx="300" cy="480" r="2" fill="#e2231a" opacity="0.18"/>
<circle cx="300" cy="494" r="2" fill="#e2231a" opacity="0.18"/>
<circle cx="300" cy="508" r="2" fill="#e2231a" opacity="0.18"/>
<circle cx="300" cy="522" r="2" fill="#e2231a" opacity="0.18"/>
<circle cx="300" cy="536" r="2" fill="#e2231a" opacity="0.18"/>
<circle cx="300" cy="550" r="2" fill="#e2231a" opacity="0.18"/>
<circle cx="314" cy="480" r="2" fill="#e2231a" opacity="0.18"/>
<circle cx="314" cy="494" r="2" fill="#e2231a" opacity="0.18"/>
<circle cx="314" cy="508" r="2" fill="#e2231a" opacity="0.18"/>
<circle cx="314" cy="522" r="2" fill="#e2231a" opacity="0.18"/>
<circle cx="314" cy="536" r="2" fill="#e2231a" opacity="0.18"/>
<circle cx="314" cy="550" r="2" fill="#e2231a" opacity="0.18"/>
<circle cx="328" cy="480" r="2" fill="#e2231a" opacity="0.18"/>
<circle cx="328" cy="494" r="2" fill="#e2231a" opacity="0.18"/>
<circle cx="328" cy="508" r="2" fill="#e2231a" opacity="0.18"/>
<circle cx="328" cy="522" r="2" fill="#e2231a" opacity="0.18"/>
<circle cx="328" cy="536" r="2" fill="#e2231a" opacity="0.18"/>
<circle cx="328" cy="550" r="2" fill="#e2231a" opacity="0.18"/>
<circle cx="342" cy="480" r="2" fill="#e2231a" opacity="0.18"/>
<circle cx="342" cy="494" r="2" fill="#e2231a" opacity="0.18"/>
<circle cx="342" cy="508" r="2" fill="#e2231a" opacity="0.18"/>
<circle cx="342" cy="522" r="2" fill="#e2231a" opacity="0.18"/>
<circle cx="342" cy="536" r="2" fill="#e2231a" opacity="0.18"/>
<circle cx="342" cy="550" r="2" fill="#e2231a" opacity="0.18"/>
<circle cx="356" cy="480" r="2" fill="#e2231a" opacity="0.18"/>
<circle cx="356" cy="494" r="2" fill="#e2231a" opacity="0.18"/>
<circle cx="356" cy="508" r="2" fill="#e2231a" opacity="0.18"/>
<circle cx="356" cy="522" r="2" fill="#e2231a" opacity="0.18"/>
<circle cx="356" cy="536" r="2" fill="#e2231a" opacity="0.18"/>
<circle cx="356" cy="550" r="2" fill="#e2231a" opacity="0.18"/></svg>