<svg xmlns="http://www.w3.org/2000/svg" viewBox="0 0 400 230" width="400" height="230"><rect width="400" height="230" fill="#fdeceb"/><g transform="translate(-30,10) rotate(0) scale(1.3)" opacity="0.16"><path d="M152.9,36.3c17.5,14.5,25.8,38.6,21.4,60.6c-4.4,22-21.1,40.9-42.1,48.6c-21,7.7-45.3,4-62.6-9.9C52.3,121.7,42,99.7,43.8,77.7c1.8-22,15.6-42.4,35.6-51.8C99.4,16.5,124.3,15.1,152.9,36.3z" fill="#e2231a"/></g><g transform="translate(230,-30) rotate(20) scale(1.25)" opacity="0.13"><path d="M170,96c3,20-6,41-23,53c-17,12-40,16-58,7c-18-9-30-27-32-47c-2-20,6-41,22-53c16-12,38-15,56-6C153,59,167,76,170,96z" fill="#1b3865"/></g><circle cx="30" cy="170" r="1.8" fill="#1b3865" opacity="0.2"/>
<circle cx="30" cy="183" r="1.8" fill="#1b3865" opacity="0.2"/>
<circle cx="30" cy="196" r="1.8" fill="#1b3865" opacity="0.2"/>
<circle cx="43" cy="170" r="1.8" fill="#1b3865" opacity="0.2"/>
<circle cx="43" cy="183" r="1.8" fill="#1b3865" opacity="0.2"/>
<circle cx="43" cy="196" r="1.8" fill="#1b3865" opacity="0.2"/>
<circle cx="56" cy="170" r="1.8" fill="#1b3865" opacity="0.2"/>
<circle cx="56" cy="183" r="1.8" fill="#1b3865" opacity="0.2"/>
<circle cx="56" cy="196" r="1.8" fill="#1b3865" opacity="0.2"/>
<circle cx="69" cy="170" r="1.8" fill="#1b3865" opacity="0.2"/>
<circle cx="69" cy="183" r="1.8" fill="#1b3865" opacity="0.2"/>
<circle cx="69" cy="196" r="1.8" fill="#1b3865" opacity="0.2"/>
<circle cx="82" cy="170" r="1.8" fill="#1b3865" opacity="0.2"/>
<circle cx="82" cy="183" r="1.8" fill="#1b3865" opacity="0.2"/>
<circle cx="82" cy="196" r="1.8" fill="#1b3865" opacity="0.2"/>
<circle cx="95" cy="170" r="1.8" fill="#1b3865" opacity="0.2"/>
<circle cx="95" cy="183" r="1.8" fill="#1b3865" opacity="0.2"/>
<circle cx="95" cy="196" r="1.8" fill="#1b3865" opacity="0.2"/></svg>